<svg width="1920" height="1080" viewBox="0 0 1920 1080" xmlns="http://www.w3.org/2000/svg"><rect width="1920" height="1080" fill="#349edf"/><path d="M 0,1080 C 0,1080 0,108 0,108 C 121.99487179487181,110.32307692307693 243.98974358974363,112.64615384615385 340,117 C 436.0102564102564,121.35384615384615 506.03589743589737,127.73846153846154 598,129 C 689.9641025641026,130.26153846153846 803.8666666666666,126.39999999999999 932,110 C 1060.1333333333334,93.60000000000001 1202.4974358974362,64.66153846153847 1312,73 C 1421.5025641025638,81.33846153846153 1498.1435897435897,126.95384615384614 1594,139 C 1689.8564102564103,151.04615384615386 1804.9282051282053,129.52307692307693 1920,108 C 1920,108 1920,1080 1920,1080 Z" fill="#3abecf" opacity="0.06"/><path d="M 0,1080 C 0,1080 0,216 0,216 C 83.41538461538462,200.9076923076923 166.83076923076925,185.8153846153846 265,192 C 363.16923076923075,198.1846153846154 476.0923076923078,225.64615384615385 590,233 C 703.9076923076922,240.35384615384615 818.8,227.60000000000002 941,225 C 1063.2,222.39999999999998 1192.7076923076922,229.95384615384614 1298,236 C 1403.2923076923078,242.04615384615386 1484.3692307692309,246.58461538461538 1584,243 C 1683.6307692307691,239.41538461538462 1801.8153846153846,227.7076923076923 1920,216 C 1920,216 1920,1080 1920,1080 Z" fill="#3abecf" opacity="0.12"/><path d="M 0,1080 C 0,1080 0,324 0,324 C 124.76923076923075,339.4076923076923 249.5384615384615,354.81538461538463 347,345 C 444.4615384615385,335.18461538461537 514.6153846153848,300.14615384615377 613,301 C 711.3846153846152,301.85384615384623 837.9999999999998,338.6 956,339 C 1074.0000000000002,339.4 1183.3846153846157,303.45384615384614 1293,305 C 1402.6153846153843,306.54615384615386 1512.4615384615383,345.5846153846154 1617,355 C 1721.5384615384617,364.4153846153846 1820.769230769231,344.2076923076923 1920,324 C 1920,324 1920,1080 1920,1080 Z" fill="#3abecf" opacity="0.18"/><path d="M 0,1080 C 0,1080 0,432 0,432 C 102.25128205128203,439.1 204.50256410256407,446.2 307,441 C 409.49743589743593,435.8 512.2410256410257,418.29999999999995 619,424 C 725.7589743589743,429.70000000000005 836.5333333333334,458.6000000000001 930,455 C 1023.4666666666666,451.3999999999999 1099.6256410256412,415.3 1220,398 C 1340.3743589743588,380.7 1504.9641025641024,382.2 1629,391 C 1753.0358974358976,399.8 1836.517948717949,415.9 1920,432 C 1920,432 1920,1080 1920,1080 Z" fill="#3abecf" opacity="0.24"/><path d="M 0,1080 C 0,1080 0,540 0,540 C 125.02051282051283,544.9179487179488 250.04102564102567,549.8358974358974 346,545 C 441.95897435897433,540.1641025641026 508.8564102564102,525.5743589743589 615,523 C 721.1435897435898,520.4256410256411 866.5333333333335,529.8666666666667 972,534 C 1077.4666666666665,538.1333333333333 1143.0102564102565,536.9589743589744 1252,535 C 1360.9897435897435,533.0410256410256 1513.425641025641,530.2974358974359 1632,531 C 1750.574358974359,531.7025641025641 1835.2871794871794,535.851282051282 1920,540 C 1920,540 1920,1080 1920,1080 Z" fill="#3abecf" opacity="0.3"/><path d="M 0,1080 C 0,1080 0,648 0,648 C 94.00769230769234,631.6333333333333 188.01538461538468,615.2666666666667 284,613 C 379.9846153846153,610.7333333333333 477.94615384615383,622.5666666666666 583,620 C 688.0538461538462,617.4333333333334 800.2,600.4666666666667 915,611 C 1029.8,621.5333333333333 1147.2538461538463,659.5666666666666 1267,672 C 1386.7461538461537,684.4333333333334 1508.7846153846153,671.2666666666667 1618,663 C 1727.2153846153847,654.7333333333333 1823.6076923076923,651.3666666666667 1920,648 C 1920,648 1920,1080 1920,1080 Z" fill="#3abecf" opacity="0.36"/><path d="M 0,1080 C 0,1080 0,756 0,756 C 125.76410256410256,758.9820512820513 251.52820512820512,761.9641025641025 372,767 C 492.4717948717949,772.0358974358975 607.651282051282,779.1256410256411 686,788 C 764.348717948718,796.8743589743589 805.8666666666668,807.5333333333333 906,791 C 1006.1333333333332,774.4666666666667 1164.8820512820512,730.7410256410257 1283,733 C 1401.1179487179488,735.2589743589743 1478.6051282051283,783.5025641025641 1578,795 C 1677.3948717948717,806.4974358974359 1798.6974358974358,781.248717948718 1920,756 C 1920,756 1920,1080 1920,1080 Z" fill="#3abecf" opacity="0.42"/><path d="M 0,1080 C 0,1080 0,864 0,864 C 106.02564102564105,852.4128205128204 212.0512820512821,840.825641025641 329,838 C 445.9487179487179,835.174358974359 573.8205128205128,841.1102564102565 677,846 C 780.1794871794872,850.8897435897435 858.6666666666667,854.7333333333333 946,855 C 1033.3333333333333,855.2666666666667 1129.5128205128203,851.9564102564103 1229,853 C 1328.4871794871797,854.0435897435897 1431.2820512820513,859.4410256410256 1547,862 C 1662.7179487179487,864.5589743589744 1791.3589743589744,864.2794871794872 1920,864 C 1920,864 1920,1080 1920,1080 Z" fill="#3abecf" opacity="0.48"/><path d="M 0,1080 C 0,1080 0,972 0,972 C 93.85641025641027,955.5128205128206 187.71282051282054,939.025641025641 309,936 C 430.28717948717946,932.974358974359 579.0051282051282,943.4102564102565 683,944 C 786.9948717948718,944.5897435897435 846.2666666666667,935.3333333333335 932,935 C 1017.7333333333333,934.6666666666665 1129.928205128205,943.2564102564104 1236,943 C 1342.071794871795,942.7435897435896 1442.020512820513,933.6410256410256 1555,937 C 1667.979487179487,940.3589743589744 1793.9897435897435,956.1794871794872 1920,972 C 1920,972 1920,1080 1920,1080 Z" fill="#3abecf" opacity="0.54"/></svg>